<svg xmlns="http://www.w3.org/2000/svg" width="118" height="35" viewBox="0 0 118 35">
    <defs>
        <linearGradient id="prefix__a" x1="60.874%" x2="26.876%" y1="4.946%" y2="71.879%">
            <stop offset="0%" stop-color="#00A0FF"/>
            <stop offset="1%" stop-color="#00A1FF"/>
            <stop offset="26%" stop-color="#00BEFF"/>
            <stop offset="51%" stop-color="#00D2FF"/>
            <stop offset="76%" stop-color="#00DFFF"/>
            <stop offset="100%" stop-color="#00E3FF"/>
        </linearGradient>
        <linearGradient id="prefix__b" x1="107.685%" x2="-130.64%" y1="50%" y2="50%">
            <stop offset="0%" stop-color="#FFE000"/>
            <stop offset="41%" stop-color="#FFBD00"/>
            <stop offset="78%" stop-color="orange"/>
            <stop offset="100%" stop-color="#FF9C00"/>
        </linearGradient>
        <linearGradient id="prefix__c" x1="86.271%" x2="-50.18%" y1="30.572%" y2="137.462%">
            <stop offset="0%" stop-color="#FF3A44"/>
            <stop offset="100%" stop-color="#C31162"/>
        </linearGradient>
        <linearGradient id="prefix__d" x1="-18.825%" x2="42.086%" y1="-12.883%" y2="34.845%">
            <stop offset="0%" stop-color="#32A071"/>
            <stop offset="7%" stop-color="#2DA771"/>
            <stop offset="48%" stop-color="#15CF74"/>
            <stop offset="80%" stop-color="#06E775"/>
            <stop offset="100%" stop-color="#00F076"/>
        </linearGradient>
    </defs>
    <g fill="none" fill-rule="evenodd">
        <path fill="#000" fill-rule="nonzero" d="M108.603 0h-99.2c-.363 0-.72 0-1.08.002-.302.002-.602.007-.907.011C6.754.02 6.094.072 5.44.168 4.788.266 4.156.45 3.566.716c-.59.268-1.128.616-1.596 1.032-.47.414-.863.893-1.162 1.418C.508 3.69.3 4.252.192 4.831c-.11.58-.17 1.165-.177 1.752-.01.268-.01.538-.015.806v20.225c.005.271.006.535.015.806.008.588.067 1.173.177 1.752.108.58.316 1.142.616 1.666.299.524.691 1 1.162 1.413.466.417 1.005.765 1.596 1.031.59.267 1.222.453 1.874.552.654.095 1.314.147 1.976.155.305.006.605.01.907.01l1.08.001h99.2c.355 0 .715 0 1.07-.002.3 0 .608-.003.908-.01.661-.006 1.32-.058 1.972-.154.655-.1 1.29-.286 1.882-.552.59-.266 1.129-.614 1.595-1.031.47-.414.862-.89 1.165-1.413.298-.524.504-1.086.61-1.666.11-.579.172-1.164.183-1.752.004-.271.004-.535.004-.806.008-.318.008-.634.008-.957V8.344c0-.32 0-.638-.008-.955 0-.268 0-.538-.004-.806-.011-.587-.073-1.173-.183-1.752-.107-.579-.313-1.14-.61-1.665-.609-1.053-1.574-1.91-2.76-2.45-.593-.265-1.227-.45-1.882-.548-.652-.097-1.31-.149-1.972-.155-.3-.004-.608-.01-.909-.011C109.318 0 108.958 0 108.603 0z"/>
        <path fill="#262626" d="M0 0H118V35H0z"/>
        <g fill-rule="nonzero">
            <path fill="#FFF" d="M49.208 13.018c-2.002.004-3.622 1.637-3.617 3.646.005 2.009 1.632 3.633 3.634 3.629 2.003-.005 3.622-1.637 3.618-3.646.014-.97-.365-1.904-1.05-2.588-.686-.684-1.618-1.06-2.585-1.041zm0 5.832c-.9.063-1.746-.432-2.134-1.248-.39-.817-.24-1.788.373-2.45.614-.663 1.57-.881 2.41-.551.839.33 1.392 1.141 1.394 2.046.028.565-.174 1.119-.558 1.533-.385.415-.92.657-1.485.67zm-7.932-5.832c-2.003.004-3.622 1.637-3.618 3.646.005 2.009 1.632 3.633 3.635 3.629 2.002-.005 3.622-1.637 3.617-3.646.014-.97-.365-1.904-1.05-2.588-.685-.684-1.618-1.06-2.584-1.041zm0 5.832c-.9.063-1.746-.432-2.135-1.248-.389-.817-.24-1.788.374-2.45.614-.663 1.569-.881 2.408-.551.84.33 1.393 1.141 1.395 2.046.028.565-.173 1.119-.558 1.533-.385.415-.92.657-1.484.67zm-9.431-4.714v1.537h3.677c-.058.724-.358 1.407-.851 1.938-.746.763-1.78 1.172-2.843 1.128-2.257 0-4.086-1.835-4.086-4.099 0-2.264 1.83-4.099 4.086-4.099 1.039-.015 2.042.38 2.792 1.102l1.08-1.085c-1.024-1.016-2.414-1.577-3.855-1.554-2.06-.08-4 .977-5.054 2.755-1.055 1.778-1.055 3.992 0 5.77 1.054 1.779 2.993 2.836 5.054 2.755 1.473.06 2.9-.516 3.924-1.58.893-.985 1.37-2.28 1.327-3.611.003-.32-.022-.641-.076-.957h-5.175zm38.565 1.196c-.454-1.342-1.687-2.262-3.098-2.314-.94-.002-1.84.387-2.486 1.074-.645.688-.977 1.612-.918 2.555-.015 1.6 1.022 3.02 2.548 3.488 1.526.467 3.177-.129 4.056-1.465l-1.234-.854c-.374.626-1.051 1.007-1.779 1-.755.03-1.451-.407-1.753-1.102l4.843-2.007-.179-.375zm-4.936 1.212c-.035-.536.146-1.063.503-1.463.358-.4.86-.639 1.395-.663.56-.034 1.087.272 1.336.777l-3.234 1.35zm-3.933 3.518h1.592V9.39h-1.592v10.673zm-2.604-6.233h-.06c-.48-.55-1.177-.862-1.906-.854-1.932.094-3.45 1.693-3.45 3.633s1.518 3.54 3.45 3.633c.73.015 1.43-.298 1.906-.853h.06v.52c0 1.392-.74 2.135-1.932 2.135-.814-.018-1.537-.527-1.83-1.29l-1.38.573c.523 1.315 1.8 2.17 3.21 2.152 1.864 0 3.404-1.102 3.404-3.783v-6.464h-1.472v.598zm-1.83 5.02c-1.158-.072-2.06-1.035-2.06-2.198 0-1.164.902-2.126 2.06-2.199.55.024 1.068.271 1.434.685.366.413.549.958.507 1.51.046.553-.134 1.101-.501 1.518-.367.416-.887.663-1.44.685zm20.76-9.46h-3.814v10.673h1.592v-4.047h2.221c1.237.089 2.42-.522 3.065-1.584s.645-2.397 0-3.458c-.646-1.062-1.828-1.674-3.065-1.584zm0 5.123h-2.222v-3.638H77.9c.651 0 1.252.349 1.578.914.325.565.325 1.262 0 1.827-.326.566-.927.914-1.578.914l-.034-.017zm9.822-1.529c-1.185-.073-2.3.568-2.835 1.631l1.405.59c.29-.525.86-.83 1.455-.778.408-.047.818.071 1.139.33.32.258.523.635.563 1.045v.103c-.511-.27-1.081-.41-1.66-.41-1.514 0-3.063.854-3.063 2.408.03.667.329 1.294.827 1.736.5.443 1.156.664 1.82.612.813.045 1.587-.353 2.025-1.042h.051v.854h1.532v-4.107c0-1.87-1.412-2.955-3.225-2.955l-.034-.017zm-.196 5.85c-.52 0-1.243-.265-1.243-.906 0-.853.902-1.144 1.702-1.144.506-.012 1.006.112 1.447.359-.11.959-.91 1.688-1.872 1.708l-.034-.017zm9.039-5.602l-1.821 4.628h-.052l-1.89-4.628h-1.701l2.834 6.473-1.617 3.594h1.66l4.357-10.067h-1.77zm-14.3 6.831h1.584V9.39h-1.583v10.673z" transform="translate(9.71 6.666)"/>
            <g>
                <path fill="url(#prefix__a)" d="M.57.348C.29.68.147 1.108.171 1.542v18.864c-.03.435.114.864.397 1.194l.06.068 10.484-10.566v-.256L.63.288l-.06.06z" transform="translate(9.71 6.666)"/>
                <path fill="url(#prefix__b)" d="M14.582 14.624l-3.469-3.522v-.256l3.47-3.522.076.05 4.154 2.372c1.185.673 1.185 1.782 0 2.464l-4.137 2.371-.094.043z" transform="translate(9.71 6.666)"/>
                <path fill="url(#prefix__c)" d="M14.684 14.573l-3.57-3.6L.568 21.6c.494.443 1.23.468 1.752.06l12.363-7.087" transform="translate(9.71 6.666)"/>
                <path fill="url(#prefix__d)" d="M14.684 7.375L2.321.296C1.802-.117 1.063-.096.569.348l10.544 10.626 3.571-3.6z" transform="translate(9.71 6.666)"/>
                <path fill="#000" d="M14.582 14.496L2.321 21.532c-.5.38-1.192.38-1.692 0l-.06.06.06.068c.5.38 1.191.38 1.692 0l12.363-7.087-.102-.077z" opacity=".2" transform="translate(9.71 6.666)"/>
                <path fill="#000" d="M.57 21.48c-.272-.338-.406-.768-.373-1.202v.128c-.029.435.114.864.398 1.194l.059-.06-.085-.06zM18.813 12.082l-4.23 2.414.076.077 4.154-2.371c.5-.213.844-.684.897-1.228-.107.492-.44.903-.897 1.108z" opacity=".12" transform="translate(9.71 6.666)"/>
                <path fill="#FFF" d="M2.321.416l16.492 9.45c.457.204.79.616.897 1.108-.053-.544-.397-1.015-.897-1.228L2.321.296C1.145-.386.171.177.171 1.542v.128C.198.305 1.146-.258 2.322.416z" opacity=".25" transform="translate(9.71 6.666)"/>
            </g>
            <path fill="#FFF" d="M27.831 4.166l.164-2.59h1.92v3.953h-2.451v-.03c.256-.304.33-.72.367-1.333zm-.954 2.089h3.778v1.067h.761V5.529h-.669V.853h-3.491l-.197 3.276c-.041.715-.175 1.175-.557 1.4h-.39v1.793h.765V6.255zm7.295.075c1.118 0 1.854-.775 1.854-2.044 0-1.266-.74-2.04-1.854-2.04s-1.853.774-1.853 2.04c0 1.269.735 2.044 1.853 2.044zm0-.667c-.627 0-1.036-.501-1.036-1.377 0-.873.409-1.374 1.036-1.374.628 0 1.037.501 1.037 1.374 0 .876-.405 1.377-1.037 1.377zm6.345-1.991c-.07-.775-.684-1.427-1.69-1.427-1.111 0-1.839.79-1.839 2.04 0 1.274.728 2.045 1.846 2.045.94 0 1.605-.57 1.69-1.408h-.772c-.093.457-.416.73-.91.73-.625 0-1.037-.501-1.037-1.366 0-.846.409-1.367 1.03-1.367.523 0 .835.334.917.753h.765zm3.982-1.355h-3.25v.64h1.222v3.298h.806V2.957h1.222v-.64zm1.423 5.405c.81 0 1.196-.307 1.53-1.261l1.463-4.144h-.846L47.08 5.52h-.015l-.988-3.204h-.87l1.412 3.942-.07.243c-.123.404-.324.561-.695.561l-.133-.001c-.05-.002-.098-.006-.127-.013v.655c.06.01.26.018.327.018zm6.508-1.467h.806V2.317h-3.332v3.938h.802V2.957h1.724v3.298zm4.68 0h.802V2.317h-.802v1.587h-1.76V2.317h-.803v3.938h.802V4.54h1.76v1.715zm3.796.075c1.118 0 1.854-.775 1.854-2.044 0-1.266-.74-2.04-1.854-2.04s-1.853.774-1.853 2.04c0 1.269.735 2.044 1.853 2.044zm0-.667c-.627 0-1.036-.501-1.036-1.377 0-.873.409-1.374 1.036-1.374.628 0 1.037.501 1.037 1.374 0 .876-.405 1.377-1.037 1.377zm6.78.592c.846 0 1.374-.442 1.374-1.134 0-.487-.334-.839-.84-.906v-.03c.376-.071.665-.446.665-.854 0-.629-.46-1.014-1.222-1.014h-1.775v3.938h1.797zm-1.003-3.35h.813c.386 0 .598.187.598.52 0 .352-.227.528-.68.528h-.731V2.904zm0 1.613h.783c.528 0 .791.187.791.569 0 .378-.248.58-.698.58h-.876v-1.15z" transform="translate(9.71 6.666)"/>
        </g>
    </g>
</svg>
