<svg xmlns="http://www.w3.org/2000/svg" width="118" height="35" viewBox="0 0 118 35">
    <g fill="none" fill-rule="evenodd">
        <path fill="#262626" d="M0 0H118V35H0z"/>
        <g fill="#FFF" fill-rule="nonzero">
            <g>
                <path d="M16.322 13.125c.023-1.81.943-3.482 2.44-4.43-.949-1.396-2.48-2.25-4.132-2.303-1.738-.188-3.423 1.073-4.309 1.073-.903 0-2.266-1.054-3.735-1.023-1.932.065-3.69 1.17-4.63 2.911-2.002 3.573-.508 8.824 1.41 11.712.959 1.414 2.08 2.993 3.547 2.937 1.436-.06 1.972-.943 3.705-.943 1.717 0 2.22.943 3.717.908 1.54-.026 2.511-1.42 3.437-2.848.69-1.008 1.22-2.121 1.572-3.3-1.83-.798-3.02-2.646-3.022-4.694zM13.495 4.493c.84-1.04 1.253-2.375 1.153-3.724-1.283.138-2.469.77-3.32 1.77-.84.987-1.266 2.277-1.184 3.587 1.3.014 2.536-.588 3.35-1.633z" transform="translate(12 4.5)"/>
            </g>
            <g>
                <path d="M7.305 9.088H3.14l-1 3.009H.376L4.32.967h1.832l3.945 11.13H8.304l-1-3.009zM3.57 7.7h3.301L5.245 2.818H5.2L3.57 7.7zM18.617 8.04c0 2.521-1.325 4.141-3.325 4.141-1.033.055-2.006-.496-2.506-1.42h-.038v4.02h-1.635v-10.8h1.583v1.35h.03c.522-.917 1.496-1.468 2.536-1.434 2.022 0 3.355 1.628 3.355 4.143zm-1.68 0c0-1.643-.834-2.723-2.106-2.723-1.25 0-2.09 1.102-2.09 2.723 0 1.635.84 2.73 2.09 2.73 1.272 0 2.105-1.073 2.105-2.73zM27.384 8.04c0 2.521-1.325 4.141-3.324 4.141-1.034.055-2.007-.496-2.507-1.42h-.037v4.02H19.88v-10.8h1.582v1.35h.03c.522-.917 1.496-1.468 2.537-1.434 2.021 0 3.354 1.628 3.354 4.143zm-1.68 0c0-1.643-.834-2.723-2.106-2.723-1.249 0-2.09 1.102-2.09 2.723 0 1.635.841 2.73 2.09 2.73 1.272 0 2.105-1.073 2.105-2.73zM33.178 8.995c.122 1.104 1.174 1.829 2.612 1.829 1.379 0 2.37-.725 2.37-1.72 0-.864-.598-1.381-2.014-1.736l-1.416-.347c-2.006-.494-2.937-1.45-2.937-3 0-1.921 1.642-3.24 3.975-3.24 2.309 0 3.891 1.319 3.945 3.24h-1.65c-.1-1.112-1.001-1.782-2.318-1.782-1.317 0-2.219.678-2.219 1.666 0 .787.576 1.25 1.984 1.604l1.204.301c2.242.54 3.173 1.457 3.173 3.085 0 2.083-1.628 3.387-4.218 3.387-2.423 0-4.059-1.274-4.164-3.287h1.673zM43.416 2.061v1.92h1.515v1.32h-1.515v4.473c0 .695.303 1.02.969 1.02.18-.004.36-.017.538-.04v1.312c-.3.057-.604.083-.908.077-1.613 0-2.242-.617-2.242-2.191V5.301h-1.158V3.98h1.158v-1.92h1.643zM45.808 8.04c0-2.554 1.476-4.158 3.778-4.158 2.31 0 3.779 1.604 3.779 4.158 0 2.56-1.462 4.157-3.78 4.157-2.316 0-3.777-1.597-3.777-4.157zm5.89 0c0-1.752-.787-2.786-2.112-2.786-1.325 0-2.112 1.042-2.112 2.786 0 1.758.787 2.784 2.112 2.784 1.325 0 2.113-1.026 2.113-2.784zM54.713 3.982h1.559v1.38h.038c.217-.888 1.017-1.5 1.916-1.465.188 0 .376.02.56.062v1.558c-.238-.074-.486-.108-.735-.1-.48-.02-.945.175-1.273.534-.328.358-.485.845-.43 1.332v4.813h-1.635V3.982zM66.325 9.713c-.22 1.473-1.629 2.484-3.43 2.484-2.318 0-3.756-1.581-3.756-4.119 0-2.545 1.446-4.196 3.687-4.196 2.204 0 3.59 1.542 3.59 4.003v.57H60.79v.1c-.053.605.152 1.203.562 1.643.41.44.986.679 1.58.656.794.076 1.542-.388 1.84-1.14h1.553zm-5.528-2.422h3.983c.03-.543-.165-1.074-.535-1.465-.371-.39-.885-.606-1.419-.594-.538-.004-1.055.212-1.436.599-.38.387-.594.912-.593 1.46z" transform="translate(12 4.5) translate(27.996 10.067)"/>
            </g>
            <g>
                <path d="M1.53 2.916h.701c.245.031.49-.043.679-.205.188-.162.3-.397.311-.648 0-.493-.364-.811-.982-.811-.25-.036-.504.033-.703.19-.2.158-.328.392-.356.647H.409c.027-.464.242-.896.594-1.193.351-.296.808-.43 1.261-.37 1.034 0 1.761.589 1.761 1.437.005.586-.392 1.096-.953 1.223v.064c.672.03 1.194.608 1.167 1.293-.048.478-.283.915-.652 1.215-.369.299-.84.434-1.308.375-.47.065-.944-.067-1.316-.365C.591 5.469.354 5.03.307 4.55h.782c.048.512.51.842 1.19.842.68 0 1.124-.37 1.124-.893 0-.53-.418-.857-1.15-.857H1.53v-.726zM5.129 4.862c0-.727.531-1.146 1.473-1.205l1.073-.063v-.348c0-.427-.276-.667-.81-.667-.437 0-.739.163-.827.448h-.756c.08-.693.72-1.138 1.62-1.138.992 0 1.553.504 1.553 1.357v2.757H7.7v-.567h-.062c-.255.414-.71.656-1.19.634-.336.035-.672-.076-.923-.306-.252-.23-.396-.558-.397-.902zm2.546-.345V4.18l-.967.063c-.546.037-.793.226-.793.582 0 .363.309.574.734.574.252.026.504-.053.697-.22.193-.166.312-.405.33-.662zM10.53 2.638L10.53 6.003 9.748 6.003 9.748 1.967 12.356 1.967 12.356 2.638zM17.095 3.983c0 1.283-.637 2.087-1.637 2.087-.501.035-.977-.23-1.22-.678h-.061v1.953h-.782V1.967h.753v.667h.058c.246-.463.727-.747 1.244-.734 1.008 0 1.645.8 1.645 2.083zm-.805 0c0-.852-.396-1.367-1.058-1.367-.658 0-1.07.526-1.07 1.371 0 .841.412 1.368 1.066 1.368.666 0 1.062-.516 1.062-1.372zM18.136 7.449v-.686c.085.01.17.016.255.015.345.026.654-.217.717-.563l.058-.197-1.434-4.05h.852l.993 3.205h.062l.99-3.206h.829L19.98 6.17c-.339.982-.713 1.297-1.521 1.297-.065 0-.251-.007-.324-.018zM22.067 4.858h.778c.077.356.404.541.862.541.52 0 .84-.233.84-.597 0-.389-.287-.574-.84-.574h-.593v-.62h.583c.472 0 .713-.184.713-.522 0-.296-.233-.522-.713-.522-.438 0-.757.189-.808.507h-.753c.117-.761.811-1.287 1.56-1.182.942 0 1.481.434 1.481 1.116.01.391-.252.736-.625.826v.063c.447.059.78.45.775.908 0 .768-.641 1.275-1.62 1.275-.865 0-1.568-.404-1.64-1.22zM26.453 6.003L26.453 1.967 27.228 1.967 27.228 4.743 27.289 4.743 29.115 1.967 29.89 1.967 29.89 6.003 29.115 6.003 29.115 3.212 29.057 3.212 27.228 6.003zM34.16 2.638L32.912 2.638 32.912 6.003 32.129 6.003 32.129 2.638 30.882 2.638 30.882 1.967 34.16 1.967zM38.371 4.913c-.22.762-.943 1.253-1.717 1.168-.528.014-1.036-.209-1.389-.61-.352-.401-.513-.94-.441-1.473-.07-.535.09-1.074.44-1.479.351-.405.857-.634 1.386-.63 1.103 0 1.769.768 1.769 2.035v.278H35.62v.044c-.025.3.075.596.276.817.201.22.484.343.78.34.381.046.753-.147.94-.49h.754zm-2.75-1.3h2c.02-.274-.074-.544-.26-.743-.185-.199-.445-.309-.714-.303-.273-.004-.536.105-.73.302-.193.197-.3.465-.296.744zM41.686 1.967h1.786c.775 0 1.23.4 1.23 1.026.002.41-.277.765-.67.853v.063c.481.03.854.44.848.93 0 .705-.52 1.164-1.39 1.164h-1.804V1.967zm.775.612v1.045h.775c.473 0 .699-.185.699-.527 0-.314-.197-.518-.612-.518h-.862zm0 1.63v1.183h.927c.463 0 .71-.208.71-.59 0-.404-.28-.593-.808-.593h-.829z" transform="translate(12 4.5) translate(28.875 2)"/>
            </g>
        </g>
    </g>
</svg>
