<?xml version="1.0" encoding="UTF-8" standalone="no"?>
<!DOCTYPE svg PUBLIC "-//W3C//DTD SVG 1.1//EN" "http://www.w3.org/Graphics/SVG/1.1/DTD/svg11.dtd">
<svg version="1.1" xmlns="http://www.w3.org/2000/svg" xmlns:xlink="http://www.w3.org/1999/xlink" preserveAspectRatio="xMidYMid meet" viewBox="0 0 640 640" width="640" height="640"><defs><path d="M22.91 7.03C22.45 3.08 19.08 0 15 0C10.92 0 7.55 3.08 7.09 7.03C6.73 7.03 3.87 7.03 3.52 7.03C2.87 7.03 2.34 7.56 2.34 8.2C2.34 10.27 2.34 26.77 2.34 28.83C2.34 29.48 2.87 30 3.52 30C5.81 30 24.19 30 26.48 30C27.13 30 27.66 29.48 27.66 28.83C27.66 26.77 27.66 10.27 27.66 8.2C27.66 7.56 27.13 7.03 26.48 7.03C25.77 7.03 23.27 7.03 22.91 7.03ZM20.55 7.03C19.44 7.03 10.56 7.03 9.45 7.03C9.9 4.37 12.22 2.34 15 2.34C17.78 2.34 20.1 4.37 20.55 7.03ZM25.31 27.66L4.69 27.66L4.69 9.38L7.03 9.38C7.03 11.48 7.03 12.66 7.03 12.89C7.03 13.54 7.56 14.06 8.2 14.06C8.85 14.06 9.38 13.54 9.38 12.89C9.38 12.66 9.38 11.48 9.38 9.38L20.63 9.38C20.63 11.48 20.63 12.66 20.63 12.89C20.63 13.54 21.15 14.06 21.8 14.06C22.44 14.06 22.97 13.54 22.97 12.89C22.97 12.66 22.97 11.48 22.97 9.38L25.31 9.38L25.31 27.66Z" id="f2vE2fHTbh"></path><path d="" id="fZ1ri7yw4"></path><path d="" id="bEX5QkANw"></path><path d="M4.67 9.39L25.33 9.39L25.33 15.39L4.67 15.39L4.67 9.39Z" id="g1mNZs3DKh"></path></defs><g><g><g><use xlink:href="#f2vE2fHTbh" opacity="1" fill="#000000" fill-opacity="1"></use><g><use xlink:href="#f2vE2fHTbh" opacity="1" fill-opacity="0" stroke="#000000" stroke-width="1" stroke-opacity="0"></use></g></g><g><g><use xlink:href="#fZ1ri7yw4" opacity="1" fill-opacity="0" stroke="#000000" stroke-width="1" stroke-opacity="1"></use></g></g><g><g><use xlink:href="#bEX5QkANw" opacity="1" fill-opacity="0" stroke="#b094f6" stroke-width="1" stroke-opacity="1"></use></g></g><g><use xlink:href="#g1mNZs3DKh" opacity="1" fill="#ffffff" fill-opacity="1"></use></g></g></g></svg>