<svg width="30" height="30" xmlns="http://www.w3.org/2000/svg" enable-background="new 0 0 512 512">

 <g>
  <title>Layer 1</title>
  <g id="svg_1">
   <path id="svg_2" d="m452,120l-60.946,0c-7.945,-67.478 -65.477,-120 -135.054,-120s-127.109,52.522 -135.054,120l-60.946,0c-11.046,0 -20,8.954 -20,20l0,352c0,11.046 8.954,20 20,20l392,0c11.046,0 20,-8.954 20,-20l0,-352c0,-11.046 -8.954,-20 -20,-20zm-196,-80c47.484,0 87.019,34.655 94.659,80l-189.318,0c7.64,-45.345 47.175,-80 94.659,-80zm176,432l-352,0l0,-312l40,0l0,60c0,11.046 8.954,20 20,20s20,-8.954 20,-20l0,-60l192,0l0,60c0,11.046 8.954,20 20,20s20,-8.954 20,-20l0,-60l40,0l0,312z"/>
  </g>
  <ellipse ry="0.5" id="svg_3" cy="200.3" cx="363" stroke="#000" fill="#fff"/>
  <path id="svg_7" d="m128,225.8" opacity="NaN" stroke="#ffffff" fill="#fff"/>
  <rect stroke="#ffffff" id="svg_8" height="93" width="347.00001" y="159.79999" x="85" fill="#fff"/>
 </g>
</svg>